<?xml version="1.0" encoding="UTF-8"?>
<svg width="397.56" height="190.08" enable-background="new 0 0 397.558 190.08" viewBox="0 0 397.558 190.08" xmlns="http://www.w3.org/2000/svg">
 <g fill-rule="evenodd">
  <path d="m226.2,63.84c2.75,2.703-2.456,5.462-.96,10.08-2.448.049-5.144.343-5.76-1.44 .46-4.656 5.12-5.117 6.72-8.64z" fill="#fff"/>
  <path d="m11.158,65.76c.963,2.397 2.838,3.882 2.88,7.2-3.521.801-2.16-3.28-3.84-4.32-.082-1.362 1.623-.937.96-2.88z" fill="#fff"/>
  <path d="m255.48,71.04c-.877,1.523-1.595,3.205-4.32,2.88-.91-3.64 2.48-4.752 4.32-2.88z" fill="#fff"/>
  <path d="m46.198,72.96h1.92v1.92c-1.072-.209-1.712-.849-1.92-1.92z" fill="#fff"/>
  <path d="m112.44,83.04c-2.367,2.864.599,6.142-.96,8.64-3.397.603-9.417-1.417-10.56,1.44h-14.88c-1.706.746-.29-1.63-1.44-1.44-9.408-.023-19.882-.125-28.8-.96-5.421-.507-10.412-1.001-13.44-3.84 .283-2.204-.149-3.691-.96-4.8 1.666-3.135 7.18-2.42 12-2.4 1.706-.746.29,1.63 1.44,1.44 9.627.613 21.723-1.244 29.76.96 1.837.236 1.533-1.667 3.84-.96 6.702,3.053 18.28-3.099 24,1.92z" fill="#fff"/>
  <path d="m212.28,83.04c-4.226,3.934-13.657,2.663-19.68,4.8-10.031.688-20.736.704-30.24,1.92-1.359-3.281-4.396-4.883-6.24-7.68 15.82-.893 36.33-.898 56.16.96z" fill="#fff"/>
  <path d="m82.198,132c2.177.543 6.586-1.146 7.2.96h-7.2v-.96z" fill="#fff"/>
  <path d="m210.36,132h4.8c.31,1.55-5.11,1.55-4.8,0z" fill="#fff"/>
  <path d="m112.44,132.96h2.88c.455,1.734-1.891.67-2.88.96v-.96z" fill="#fff"/>
  <path d="m50.998,134.88c-3.692-.492-4.709,1.691-8.64.96-.52,3.399 2.829,2.931 5.76,2.88 .301,2.701-1.43,3.37-1.92,5.28h-5.76c.186-1.414 2.099-1.101 2.88-1.92-.674-2.526-3.407-2.993-5.28-4.32 1.397-3.29 9.79-4.55 12.96-2.88z" fill="#fff"/>
  <path d="m30.358,134.88c.493,1.613-1.493.747-2.4.96-.493-1.61 1.493-.75 2.4-.96z" fill="#fff"/>
  <path d="m231.48,134.88h3.84c.293,1.894-2.636.564-3.84.96v-.96z" fill="#fff"/>
  <path d="m230.52,135.84c.186,1.946-2.991.528-4.32.96-.19-1.95 2.99-.53 4.32-.96z" fill="#fff"/>
  <path d="m224.28,136.8c-.191,2.049-4.022.458-5.76.96 .19-2.05 4.02-.46 5.76-.96z" fill="#fff"/>
  <path d="m210.36,137.76h2.88c.454,1.734-1.891.67-2.88.96v-.96z" fill="#fff"/>
  <path d="m92.278,139.68c1.807,1.39 1.073,1.39 2.88,0-.695,1.815 1.319.921.96,2.4h-3.84v-2.4z"/>
  <path d="m99.478,139.68c1.613-.492.748,1.493.96,2.4h-2.4c.202-1.08 1.028-1.53 1.438-2.4z"/>
  <path d="m265.56,142.08h2.88c.454,1.734-1.891.669-2.88.96v-.96z" fill="#fff"/>
  <path d="m111.48,147.84c.493,1.613-1.493.747-2.4.96-.5-1.61 1.49-.75 2.4-.96z" fill="#fff"/>
  <path d="m38.998,155.04h3.36c.385,1.824-2.27.61-3.36.96v-.96z" fill="#fff"/>
  <path d="m157.08 156.96h11.04c-1.54 1.58-9.5 1.58-11.04 0z" fill="#fff"/>
  <path d="m365.4,158.88h7.2c-.526,1.234-1.536,1.984-3.36,1.92-.745,2.025 2.665-.105 1.92,1.92h-2.88c.75-3-3.08-1.4-2.88-3.84z" fill="#fff"/>
  <path d="m272.28,159.84h2.88c.455,1.734-1.891.67-2.88.96v-.96z"/>
  <path d="m150.36,161.76h2.88c.455,1.734-1.891.67-2.88.96v-.96z" fill="#fff"/>
  <path d="m220.44,168h4.8c-.216,1.704-3.191.648-3.84,1.92 .59-1.55-1.56-.37-.96-1.92z" fill="#fff"/>
  <path d="m221.4,171.84c4.257.23 6.303,1.558 10.08,0-1.637,4.41-5.357,1.731-10.08,1.92v-1.92z" fill="#fff"/>
  <path d="m216.12,169.92c.209-2.397.849.372 1.92,0 1.273.153-.449-2.689 1.44-1.92 .593-1.554-1.554-.367-.96-1.92 1.115-.965 3.002-1.158 5.279-.96 .043-1.877 3.152-.688 2.4-3.36-3.144,2.974-5.938.765-11.04.96-.473-4.312 4.69-2.989 6.24-5.28-18.477,2.347-41.391-2.823-60,3.36-1.786-1.77-5.717-.858-7.2.48 .821,1.098 3.664.176 5.28.479v3.36c-3.286-.566-3.773,1.666-7.2.96 1.002,2.622 4.055-.209 5.76,0-1.684,4.192-9.496,9.352-3.84,14.88-.737,3.777 1.322,4.758.96,8.16-6.99-.986-19.178,2.306-22.08-2.4h-2.88c2.77-1.535 1.068-2.395.96-5.76 1.674-.887 3.4-1.72 5.28-2.4-3.746-1.214-10.95,1.03-10.08-4.8 1.109-.811 2.596-1.243 4.8-.96v-1.439c-2.479-.184-7.027-3.073-9.12-.48-1.608-1.592-5.629-.771-8.64-.96v-4.8c1.734-.455.669,1.891.96,2.88 1.411-1.469 4.909-.851 7.68-.96-1.203-1.356-3.295-1.824-5.76-1.92v-3.36c2.167-.553 4.609-.831 5.76-2.399-.666-1.095-3.341-.18-4.8-.48v-1.92c-6.947-.573-13.815-1.225-19.68-2.88-.651.148-.398,1.201-.48,1.92-8.617-.21-18.945-1.023-28.8.96-.663,1.943 1.042,1.518.96,2.88-.816-.177-.906.374-.96.96-1.717-1.643-5.983-.737-9.12-.96-.114,2.657 2.693,3.125 3.84,1.92 .413,1.508-1.122,4.963 1.44,4.32v4.8c-2.511,1.489-3.317,4.684-8.16,3.84 1.265-3.771-3.116-5.568-.96-7.2-2.138-1.702-4.723-2.957-6.24-5.279-.273-1.554.146-2.415.96-2.88-1.171-1.817-6.112-3.858-7.68-.961 .666,1.095 3.341.18 4.8.48v2.88c-3.585.735-5.132,3.508-8.16,4.8-.898,2.179 1.907.653 1.44,2.4-3.343,2.417-7.4,4.12-11.04,6.24 3.049,1.75 6.337,3.263 6.72,7.68 .769,1.889-2.073.167-1.92,1.44-.464,2.384 3.151.688 1.92,3.84-3.956-.845-11.361,1.761-12.96-1.44-1.3.14-3.555-.675-2.88,1.44-1.101-1.021-2.644-2.405-3.36,0-1.246-.194-1.386-1.495-1.92-2.4h2.4c-.299-5.213 3.314-8.493.96-12.96h-2.4c.331-2.25-1.685-2.155-.96-4.8 2.01.41 2.613-.588 3.36-1.44-1.88-1.535-3.606,1.176-5.28,1.44-.422-1.657-2.046-2.113-2.88-3.36-.264-1.064.917-.684.96-1.439-1.455-.945-2.376-2.424-1.92-5.28 2.699.647 4.596-2.539 6.24,0 .302-.818 1.45-.79 1.92-1.44 .19-1.15-2.187.267-1.44-1.439-1.973,2.041-3.618-.025-6.24,0-.488.312-.497,1.104-1.44.96-.593,1.553 1.553.366.96,1.92-1.653.373-2.293-.268-1.92-1.92h-5.28c-1.784-2.216-2.26-5.739-1.92-10.08 5.052-1.344 12.884-.811 16.8,0 1.62-2.279-3.068-2.357-3.84-3.84-.359-1.479 1.655-.585.96-2.4 5.086.126 7.105-2.814 12-2.88-7.376-1.914-16.197,2.986-25.92,1.92-.646-2.886 1.606-2.874.96-5.76 1.593-.153 2.953-.072 3.36.96 16.34-1.739 32.798-3.362 49.44-4.8-.025-1.785 2.447-1.073 3.36-1.92-4.156-.472-10.34,1.177-16.32.479-.562.078-.405.875-.48,1.44-13.756.645-27.564,1.235-40.32,2.88-.018-8.436.897-21.009 0-29.28 .917-.858 2.01-6.068 0-6.72 1.471-1.876 1.471-8.204 0-10.08-.745-2.025 2.665.105 1.92-1.92 4.08,1.2 6.936,3.625 12.96,2.88-2.485-4.075-6.673-6.447-13.92-5.76-2.088-18.568 8.696-24.264 12.96-36.48 3.361-.159 4.239-2.8 6.24-4.32-1.918-2.082-1.615-6.385-4.32-7.68v-4.8c3.877-1.723 3.745-7.455 8.64-8.16 1.249-3.552 2.979-6.62 3.36-11.04h1.44c.613-4.507 3.845-6.395 7.68-7.68-2.497,5.983-4.456,12.504-9.12,16.32-.522,1.962 1.652,1.228 1.92,2.4 6.525-2.594 10.892-7.348 20.64-6.72 .175-1.105 2.102-.459 1.92-1.92 .963.477 1.943.937 2.88,1.44 .052,2.132-1.524,2.636-3.84,2.4-3.576,4.424-11.9,4.099-18.24,5.76v1.92c3.509,1.611 4.723,5.517 7.2,8.16-1.815-.695-.921,1.319-2.4.96v7.2c-2.814-.095-3.685,1.754-4.8,3.36 2.003.397 3.12,1.68 5.76,1.44v4.8c2.126,2.031 4.879,6.639 6.24,10.08 .276.698 1.201,1.745 3.36,1.44 3.831-3.049 6.415-7.345 8.64-12h5.76c-.134,1.254-.162,2.402 1.44,1.92v4.8c-2.297-.697-1.193,2.007-1.44,3.36-1.362-.082-.937,1.623-2.88.96-2.298,6.502-8.374,9.226-11.04,15.36 .48,1.347 2.22.049 2.4-.48 .925.946 4.532,1.756 5.28,0 20.392-1.583 38.708,2.068 56.64-.96 .22-2.02-.678-5.158.96-5.76-2.965-10.375 6.856-15.709 14.88-18.24-.421-2.981 1.044-4.076 2.88-4.8-.98-2.059-1.846-4.234-3.84-5.28 2.671-9.37 6.645-20.232 20.16-15.84 1.208,2.312 3.934,3.106 6.72,3.84 1.317,2.892.667,6.641-.96,9.12 .596,1.092 1.727,2.571 0,3.36 .148.651 1.202.398 1.92.48 .437,2.997-1.2,3.92-2.88,4.8-.387,3.206 2.662,6.435-.48,8.16-1.886.446-1.211-1.669-3.36-.96 1.95,1.25 2.441,3.959 4.8,4.8 .196,3.165.528,6.192 2.88,7.2-.362,2.518.889,6.648-.96,7.68 .542.578 1.37.87.96,2.4 3.096.584 8.564-1.204 10.08.96 4.959-2.081 13.645-.436 20.16-.96 2.261,3.462 12.317.462 16.8,0 .059,2.021 3.684.477 5.28.96 .593-1.553-1.554-.367-.96-1.92 1.352-3.608 2.919-7 3.84-11.04h1.92c.42-3.58 2.174-5.827 2.88-9.12 4.646-2.395 6.158-7.922 9.12-12 3.001-.999 5.414-2.585 7.2-4.8 3.807.127 5.613-1.747 6.72-4.32h2.88c2.7-3.11 1.127-9.886-1.92-11.52 .077-2.963 2.183-3.897 2.4-6.72-7.598-1.674-14.935,1.064-21.12,2.4v-3.84c6.368-1.792 14.566-1.754 22.08-2.4-4.08-2.96-9.282-4.798-13.92-7.2-.695-1.815 1.318-.921.96-2.4 4.295,2.585 11.741,2.019 12.96,7.68h14.88c.306,3.15 6.581,4.586 3.84,7.68 .207,1.073 2.365.194 3.36.48 .461,2.258 1.429,4.011.96,7.2h-3.36c1.629,1.427 1.629,2.413 0,3.84-.74,2.02 2.483.076 2.4,1.44-.301,3.54-5.515,2.166-7.2,4.32-.712,2.472 1.455,2.064.96,4.32h2.88c.178,2.542 1.342,4.099 3.36,4.8-.827,8.293-5.757,12.484-7.2,20.16 7.102-.258 5.095-9.625 12-10.08 2.197,1.163 5.562,1.158 7.2,2.88 .454,8.614-9.292,7.028-10.08,14.4-2.5-.26-3.145,1.335-2.88,3.84-3.386-.346-5.824.256-8.16.96-.417,1.856.803,2.077 1.439,2.88 10.632-2.648 22.192-4.368 32.16-7.68 .562-.078.405-.875.48-1.44 12.512-2.208 23.052-6.388 34.56-9.6 .562-.078.405-.875.48-1.44 6.497-.702 10.259-4.141 16.8-4.8v-8.16c1.071-.208 1.711-.849 1.92-1.92 12.88-.08 14.005,11.595 21.12,17.28 .532,6.188 3.635,9.805 3.84,16.32 2.658,3.102 10.112,1.407 13.92,3.36 2.101-2.06 8.609.29 10.561-1.92 1.486.274 1.812,1.708 2.88,2.4-.125,2.276-1.212,3.588-2.4,4.8-7.683-2.897-18.398.942-25.44-.96-1.207,4.873-3.361,8.798-3.359,14.88-2.574,3.826-7.117,5.683-10.08,9.12-9.483,1.076-15.172,5.948-24,7.68 1.816,3.304 7.869,2.37 11.04,4.32-.032,1.408-1.467,1.413-1.92,2.399-.081,1.041 1.702.218 2.399.48 .651-.148.398-1.202.48-1.92 6.407-.327 7.234,4.925 9.12,9.12 1.595.155.521-2.359 2.88-1.44 1.58,1.434 4.229,4.269 6.24,2.4-3.069,3.744 4.168,8.116.96,12h-4.32c-.182,1.461 1.745.814 1.92,1.92 2.02.579 2.104-.775 3.36-.96 1.26.34 2.158,1.042 1.92,2.88h-15.84c3.836,1.706 13.88,1.438 17.76,0-.496,4.783-10.939-.38-12.96,2.88-2.708-2.824-7.283,1.953-10.08-.96-1.203-.083-1.165,1.075-1.92,1.44 17.487,1.529 34.479-.674 50.88.479 .956,2.511 4.17,5.885 1.44,9.12-5.817-.697-9.171,1.07-14.4.96-.616,3.337 3.745,1.695 4.32,3.84h-7.2c-.594-1.553 1.553-.366.96-1.92-1.554-.593-.367,1.554-1.92.96 1.708-1.65-.302-3.757-2.88-3.84v1.44c.06,1.06 2.036.203 2.88.479-1.614,2.226-3.025,4.655-6.24,5.28v2.88c-7.354,1.446-8.915,8.685-10.56,15.84h-3.36c1.459,5.916-5.67,4.813-6.72,1.92 .683-3.637 3.073-5.566 5.76-7.2-3.91-1.37-11.929,1.369-11.04-4.8 .994-.285 3.153.594 3.36-.479-4.201-.76-8.057-1.864-13.44-1.44-.488-2.232-3.3-2.14-4.8-3.36-.25-3.129 3.437-2.322 6.24-2.399-1.694-2.627-6.839-1.802-11.04-1.92v-1.44c-2.501,1.639-4.617-1.661-5.28-1.92-4.593-1.792-11.199-.061-14.4-3.84-2.019-.579-2.104.775-3.359.96-.637-1.575-7.523-1.575-8.16,0-7.791-1.504-23.055-.789-35.04-.96 .197,1.723 3.077.763 2.88,2.88-1.321.759-3.025,1.135-3.84,2.4 .357,1.082 2.692.188 3.84.479 .732,1.827.884,4.236 3.36,4.32v2.88c-2.938-.058-5.852-.091-6.24,2.4 3.338,2.045 4.919-1.792 7.2-2.4-.479,2.079.536,2.664.96,3.84-1.024-.225-.914.686-.96,1.44-1.288-.473-1.327-2.194-3.84-1.44-2.256,1.584-1.741,5.939-6.24,5.28 1.339,2.341 4.946,2.413 6.72,4.32 .161,2.561-2.253,2.546-4.8,2.399-.695,1.815 1.318.921.96,2.4 1.49-1.52 5.779-1.317 6.24.96h-27.36c-.155-2.111 3.999-2.721 4.8-.96 1.248-.353.917-2.283 2.4-2.4 .082-1.361-1.623-.937-.96-2.88h3.84c.934-5.573-8.381-.899-10.08-3.84-5.901,2.58-11.973-2.222-18.72-1.92 1.186-2.89.576-3.605 0-6.72-.99-.61-2.48-.72-3.36-1.44zm3.36-97.44c.616,1.783 3.312,1.489 5.76,1.44-1.496-4.618 3.71-7.377.96-10.08-1.6,3.523-6.26,3.984-6.72,8.64zm-209.28-3.84c1.68,1.04.319,5.121 3.84,4.32-.042-3.318-1.917-4.803-2.88-7.2 .663,1.943-1.042,1.518-.96,2.88zm28.8,3.36c1.886.445 1.211-1.669 3.36-.96 .064-1.825-.686-2.834-1.92-3.36 .638,2.558-.689,3.151-1.44,4.32zm212.16,1.92c2.726.325 3.443-1.356 4.32-2.88-1.84-1.872-5.23-.76-4.32,2.88zm-203.04.96v-1.92h-1.92c.208,1.071.848,1.711 1.92,1.92zm40.32,6.24c-2.308-.708-2.003,1.196-3.84.96-8.037-2.204-20.133-.347-29.76-.96-1.15.19.266-2.187-1.44-1.44-4.82-.02-10.334-.734-12,2.4 .811,1.109 1.243,2.596.96,4.8 3.028,2.838 8.019,3.333 13.44,3.84 8.917.834 19.392.937 28.8.96 1.15-.19-.266,2.187 1.44,1.44h14.88c1.142-2.858 7.163-.837 10.56-1.44 1.559-2.498-1.406-5.776.96-8.64-5.72-5.019-17.298,1.133-24.002-1.92zm67.682.96c1.844,2.796 4.881,4.398 6.24,7.68 9.504-1.216 20.208-1.231 30.24-1.92 6.023-2.137 15.455-.866 19.68-4.8-19.83-1.858-40.34-1.853-56.16-.96zm-73.922,50.88h7.2c-.614-2.106-5.023-.417-7.2-.96v.96zm132.96-.96h-4.8c-.31,1.55 5.11,1.55 4.8,0zm-101.28,7.68c10.166-1.514 20.062-3.297 31.2-3.84 .329-2.071 4.358-.441 6.24-.96-13.485-1.527-27.651,3.155-41.76,2.88-.719,1.536-5.792,1.229-7.2.48 1.611-.987.337-.992 0-2.4 2.756-1.243 7.506-.493 9.12-2.88-9.376.863-18.256,2.224-27.84,2.88-4.026,3.324-16.388,2.396-20.64,0 6.904.184 10.932-2.509 18.24-1.92-7.699-2.555-16.924,1.618-24.96,1.92-.25,3.43-2.566,4.794-3.84,7.2 .943.144.952-.648 1.44-.96 6.475,5.056 16.963,2.771 27.36,3.84 10.708,1.102 26.549.045 33.12-.96 .769-1.889-2.073-.167-1.92-1.44-.41-2.17.84-2.68 1.44-3.84zm-1.44-5.76c.989-.29 3.334.774 2.88-.96h-2.88v.96zm48,10.56c-1.28.961-3.791.689-4.32,2.4 10.959.562 24.212-1.172 33.6.96 2.333-.767 1.507-.767 3.84,0 5.151-1.83 13.097,1.099 20.64,0 .185-1.255 1.539-1.341.96-3.36-.008-1.432-3.557.678-2.88-1.439 1.325-1.395 4.542-.898 7.2-.96-6.043-3.286-14.622,1.669-21.12-.48 2.883-1.437 7.199-1.44 10.08-2.88-18.3.782-30.952,4.24-48,3.84-.684-2.443 2.417-1.103 3.84-1.439-.109-2.029 1.715-2.125 2.4-3.36 15.457.257 27.212-3.188 41.76-3.84-14.714-1.589-32.367,3.315-47.04,3.84-.571,2.149-2.985,2.455-3.36,4.8 .22,1.22 3.36-.49 2.4,1.92zm-122.4-6.72c1.873,1.327 4.606,1.794 5.28,4.32-.781.819-2.694.506-2.88,1.92h5.76c.49-1.91 2.221-2.579 1.92-5.28-2.931.051-6.28.52-5.76-2.88 3.931.731 4.948-1.452 8.64-.96-3.17-1.67-11.563-.41-12.96,2.88zm-10.08-1.92c.907-.213 2.893.653 2.4-.96-.907.21-2.893-.65-2.4.96zm203.52,0c1.204-.396 4.133.934 3.84-.96h-3.84v.96zm-5.28.96c1.329-.432 4.506.986 4.32-.96-1.33.43-4.51-.99-4.32.96zm-7.68.96c1.737-.502 5.568,1.089 5.76-.96-1.74.5-5.57-1.09-5.76.96zm-8.16.96c.989-.29 3.334.774 2.88-.96h-2.88v.96zm55.2,4.32c.989-.291 3.334.774 2.88-.96h-2.88v.96zm-21.12.96c.196,1.723 3.077.763 2.88,2.88-.851.109-2.404-.483-1.92.96 5.945-.453 12.639-.69 18.72.96-.189-1.553 5.47-1.553 5.28,0 1.287-2.245 2.882,1.614 3.84-.96 .688-2.288-3.568.368-2.88-1.92 2.249.311 5.748-.628 7.2.479 .19,1.15-2.187-.266-1.44,1.44 3.387-.293 4.363-2.996 9.12-1.92-6.894-2.547-19.19.31-26.88-1.44 .234-1.525 4.327.808 3.84-1.439-6.41-.17-10.81,1.67-17.76.96zm-135.36,4.8c.907-.213 2.893.653 2.4-.96-.91.21-2.9-.65-2.4.96zm-70.082,7.2c1.091-.35 3.745.864 3.36-.96h-3.36v.96zm129.12.96h-11.04c1.54,1.58 9.5,1.58 11.04,0zm147.36,2.88c-.414-1.505-5.211-3.211-6.24-.96 2.99-.6 4.01.79 6.24.96zm52.8,2.88h2.88c.745-2.025-2.665.105-1.92-1.92 1.824.064 2.834-.686 3.36-1.92h-7.2c-.2,2.44 3.63.84 2.88,3.84zm-217.92,0c.989-.29 3.334.774 2.88-.96h-2.88v.96zm212.16,3.36c1.361.082.937-1.623 2.88-.96-.144.943.647.951.96,1.439 .694,1.815-1.319.922-.96,2.4 2.862-.177 4.171-1.909 3.84-5.28h-5.76c.69,1.82-1.32.92-.96,2.4zm-141.12,3.84c.648-1.271 3.624-.216 3.84-1.92h-4.8c-.6,1.55 1.55.37.96,1.92zm0,3.84c4.723-.188 8.443,2.49 10.08-1.92-3.777,1.558-5.823.23-10.08,0v1.92z"/>
  <path d="m40.438,67.68c1.234.526 1.984,1.536 1.92,3.36-2.149-.709-1.475,1.405-3.36.96 .751-1.169 2.078-1.762 1.44-4.32z" fill="#fff"/>
  <path d="m112.44,143.52c-.153,1.273 2.689-.448 1.92,1.44-6.571,1.005-22.412,2.062-33.12.96-10.397-1.069-20.885,1.216-27.36-3.84-.488.312-.497,1.104-1.44.96 1.274-2.406 3.59-3.771 3.84-7.2 8.036-.302 17.261-4.475 24.96-1.92-7.309-.589-11.336,2.104-18.24,1.92 4.252,2.396 16.614,3.324 20.64,0 9.583-.656 18.464-2.017 27.84-2.88-1.613,2.387-6.363,1.637-9.12,2.88 .337,1.408 1.611,1.413 0,2.4 1.407.748 6.481,1.056 7.2-.48 14.109.275 28.275-4.407 41.76-2.88-1.882.519-5.912-1.111-6.24.96-11.137.543-21.034,2.326-31.2,3.84-.6,1.16-1.85,1.67-1.44,3.84zm-20.162-1.44h3.84c.359-1.479-1.655-.585-.96-2.4-1.807,1.39-1.073,1.39-2.88,0v2.4zm5.76,0h2.4c-.213-.907.653-2.893-.96-2.4-.412.87-1.238,1.32-1.442,2.4z" fill="#fff"/>
  <path d="m158.04,142.56c.375-2.345 2.79-2.65 3.36-4.8 14.673-.524 32.326-5.429 47.04-3.84-14.548.652-26.303,4.097-41.76,3.84-.685,1.235-2.509,1.331-2.4,3.36-1.423.337-4.523-1.004-3.84,1.439 17.048.4 29.7-3.058 48-3.84-2.881,1.439-7.197,1.443-10.08,2.88 6.498,2.149 15.077-2.806 21.12.48-2.658.062-5.875-.435-7.2.96-.677,2.117 2.872.008 2.88,1.439 .579,2.02-.775,2.105-.96,3.36-7.543,1.099-15.489-1.83-20.64,0-2.333-.767-1.507-.767-3.84,0-9.388-2.132-22.641-.398-33.6-.96 .529-1.711 3.041-1.439 4.32-2.4 .96-2.41-2.18-.7-2.4-1.92z" fill="#fff"/>
  <path d="m309.24,158.88c1.029-2.251 5.826-.545 6.24.96-2.23-.17-3.25-1.56-6.24-.96z" fill="#fff"/>
  <path d="m363.48,163.68h5.76c.331,3.371-.978,5.104-3.84,5.28-.359-1.479 1.654-.585.96-2.4-.312-.488-1.104-.496-.96-1.439-1.943-.663-1.519,1.042-2.88.96-.36-1.48 1.65-.58.96-2.4z" fill="#fff"/>
  <path d="m262.2,143.04c.487,2.247-3.605-.086-3.84,1.439 7.689,1.75 19.986-1.106 26.88,1.44-4.757-1.076-5.733,1.627-9.12,1.92-.746-1.706 1.631-.29 1.44-1.44-1.452-1.107-4.951-.169-7.2-.479-.688,2.288 3.568-.368 2.88,1.92-.958,2.574-2.553-1.285-3.84.96 .189-1.553-5.47-1.553-5.28,0-6.081-1.65-12.774-1.413-18.72-.96-.484-1.443 1.069-.851 1.92-.96 .197-2.117-2.684-1.157-2.88-2.88 6.95.71 11.35-1.13 17.76-.96z" fill="#fff"/>
 </g>
</svg>
